HIERARCHY
ROOT Hips
{
  OFFSET 280.963 92.3047 322.597
  CHANNELS 6 Xposition Yposition Zposition Zrotation Xrotation Yrotation
  JOINT RightUpLeg
  {
    OFFSET -8.9458 -8.66707 0.101652
    CHANNELS 3 Zrotation Xrotation Yrotation
    JOINT RightLeg
    {
      OFFSET 0 -44.4227 1.3727
      CHANNELS 3 Zrotation Xrotation Yrotation
      JOINT RightFoot
      {
        OFFSET 0.253549 -42.0924 -1.46059
        CHANNELS 3 Zrotation Xrotation Yrotation
        JOINT RightToes
        {
          OFFSET 0.04 -4.41509 8.4991
          CHANNELS 3 Zrotation Xrotation Yrotation
          End Site
          {
            OFFSET -0.08 -0.137448 9.77979
          }
        }
      }
    }
  }
  JOINT Spine
  {
    OFFSET 0 11.8905 0
    CHANNELS 3 Zrotation Xrotation Yrotation
    JOINT Spine1
    {
      OFFSET 0 25.6574 0.127663
      CHANNELS 3 Zrotation Xrotation Yrotation
      JOINT HEad
      {
        OFFSET 0 8.73416 0.011341
        CHANNELS 3 Zrotation Xrotation Yrotation
        End Site
        {
          OFFSET -0.29 12.7742 2.51395
        }
      }
      JOINT LeftShoulder1
      {
        OFFSET 8.99 -0.362252 -0.22
        CHANNELS 3 Zrotation Xrotation Yrotation
        JOINT LeftArm
        {
          OFFSET 10.2827 -0.00338 0.322123
          CHANNELS 3 Zrotation Xrotation Yrotation
          JOINT LeftForeArm
          {
            OFFSET 32.7669 0.099144 -1.42434
            CHANNELS 3 Zrotation Xrotation Yrotation
            JOINT LeftHand
            {
              OFFSET 27.5643 0.085362 1.02216
              CHANNELS 3 Zrotation Xrotation Yrotation
              End Site
              {
                OFFSET 16.7443 -0.6 1.50291
              }
            }
          }
        }
      }
      JOINT RightShoulder
      {
        OFFSET -8.99 -0.362252 -0.22
        CHANNELS 3 Zrotation Xrotation Yrotation
        JOINT RightArm
        {
          OFFSET -10.2827 -0.00338 0.322123
          CHANNELS 3 Zrotation Xrotation Yrotation
          JOINT RightForeArm
          {
            OFFSET -32.8971 0.099144 -1.42434
            CHANNELS 3 Zrotation Xrotation Yrotation
            JOINT RightHand
            {
              OFFSET -27.4921 0.085362 1.02216
              CHANNELS 3 Zrotation Xrotation Yrotation
              End Site
              {
                OFFSET -16.6312 -0.6 1.50291
              }
            }
          }
        }
      }
    }
  }
  JOINT LeftUpLeg
  {
    OFFSET 8.9458 -8.66707 0.101652
    CHANNELS 3 Zrotation Xrotation Yrotation
    JOINT LeftLeg
    {
      OFFSET 0 -44.4227 1.3727
      CHANNELS 3 Zrotation Xrotation Yrotation
      JOINT LeftFoot
      {
        OFFSET -0.253549 -42.0924 -1.46059
        CHANNELS 3 Zrotation Xrotation Yrotation
        JOINT LeftToes
        {
          OFFSET -0.04 -4.41509 8.4991
          CHANNELS 3 Zrotation Xrotation Yrotation
          End Site
          {
            OFFSET 0.08 -0.047448 9.77979
          }
        }
      }
    }
  }
}
MOTION
Frames:	18
Frame Time:	0.0166667
0	104.104	0	0.218298	-1.27043	160.133	1.90472	-3.12136	4.81936	-0.629557	11.9996	5.37512	1.43171	-7.44554	0.137148	0.0462048	0.000533964	0.662642	-0.114659	-3.27008	-0.724004	-0.271452	-6.53565	-1.45838	1.2451	15.5216	17.0179	-7.95E-16	7.95E-16	0.00E+00	-4.67956	-13.8182	-6.85012	2.74868	19.2095	-9.52753	0.140932	11.6245	3.82637	-7.95E-16	7.95E-16	0.00E+00	3.39301	-10.6478	5.35534	-1.1881	21.4829	-0.292149	1.19225	13.5497	-2.48266	-2.67242	-1.05817	14.3673	1.99127	10.1171	0.890278	-5.81316	-17.2695	-1.40362	1.30E-14	3.26E-14	3.98E-15
-0.008	104.103	0.007	0.21053	-1.2778	160.13	1.89679	-3.13526	4.83059	-0.628567	11.9974	5.37045	1.43633	-7.45253	0.138994	0.0462048	0.000533964	0.662642	-0.11465	-3.26795	-0.721926	-0.271287	-6.53141	-1.4542	1.24811	15.5103	17.0136	-7.95E-16	2.39E-15	3.18E-15	-4.67841	-13.8167	-6.85696	2.74139	19.0847	-9.50488	0.160011	11.6197	3.83395	-7.95E-16	2.39E-15	3.18E-15	3.3937	-10.6525	5.34661	-1.17875	21.5047	-0.305894	1.20365	13.546	-2.48948	-2.6738	-1.07271	14.3981	1.98308	10.113	0.870808	-5.79666	-17.2644	-1.40322	1.44E-14	3.10E-14	5.57E-15
-0.015	104.102	0.013	0.202512	-1.28189	160.126	1.88638	-3.1442	4.84307	-0.622339	11.9921	5.35914	1.43674	-7.46123	0.139827	0.0462048	0.000533964	0.662642	-0.114716	-3.26616	-0.720496	-0.272364	-6.52781	-1.45137	1.24771	15.5078	17.0151	-7.95E-16	-1.59E-15	0.00E+00	-4.67546	-13.8378	-6.86249	2.72926	18.9508	-9.46903	0.157478	11.6071	3.84688	-7.95E-16	-1.59E-15	0.00E+00	3.39434	-10.669	5.33627	-1.16306	21.4709	-0.32296	1.21334	13.5296	-2.4947	-2.67373	-1.08195	14.4247	1.96954	10.1079	0.859628	-5.77726	-17.2627	-1.40225	1.39E-14	3.18E-14	5.57E-15
-0.022	104.1	0.019	0.193041	-1.27816	160.123	1.86928	-3.14539	4.84601	-0.616359	11.9858	5.35648	1.43539	-7.4735	0.140417	0.0462048	0.000533964	0.662642	-0.114798	-3.2635	-0.718962	-0.273989	-6.52167	-1.44978	1.24206	15.5194	17.02	7.95E-16	7.95E-16	6.36E-15	-4.67282	-13.8688	-6.85453	2.72864	18.8311	-9.44182	0.134736	11.6056	3.86407	7.95E-16	7.95E-16	6.36E-15	3.40408	-10.6963	5.33246	-1.15279	21.4464	-0.335011	1.2514	13.518	-2.50336	-2.68124	-1.08566	14.4379	1.96021	10.1018	0.854152	-5.7565	-17.2622	-1.39454	1.38E-14	3.42E-14	6.36E-15
-0.028	104.097	0.024	0.186848	-1.26956	160.119	1.85424	-3.13667	4.8404	-0.610813	11.9755	5.35926	1.43289	-7.48803	0.140788	0.0462048	0.000533964	0.662642	-0.114907	-3.26036	-0.717489	-0.275849	-6.51473	-1.44854	1.23447	15.5334	17.0253	1.77E-31	3.18E-15	-3.18E-15	-4.68935	-13.9041	-6.83583	2.74106	18.7352	-9.42649	0.138447	11.6081	3.88886	1.77E-31	3.18E-15	-3.18E-15	3.41937	-10.712	5.32672	-1.15651	21.4879	-0.340414	1.32812	13.5305	-2.51266	-2.68853	-1.08272	14.4338	1.95333	10.0956	0.854971	-5.73605	-17.2625	-1.38404	1.40E-14	3.18E-14	5.57E-15
-0.031	104.094	0.03	0.18227	-1.25647	160.117	1.84184	-3.12212	4.83463	-0.60722	11.966	5.36695	1.43047	-7.50695	0.140964	0.0462048	0.000533964	0.662642	-0.115021	-3.25649	-0.715861	-0.277538	-6.50845	-1.446	1.22075	15.5452	17.0301	1.19E-15	1.59E-15	3.18E-15	-4.7158	-13.9291	-6.81891	2.75112	18.6921	-9.42125	0.170923	11.5801	3.90427	1.19E-15	1.59E-15	3.18E-15	3.41931	-10.6914	5.3075	-1.1686	21.5616	-0.324546	1.40188	13.5618	-2.51684	-2.69519	-1.07521	14.4103	1.94602	10.0925	0.866909	-5.71597	-17.2634	-1.37199	1.33E-14	3.10E-14	6.36E-15
-0.031	104.091	0.036	0.18189	-1.2376	160.108	1.83237	-3.10169	4.83691	-0.602784	11.9575	5.36915	1.42795	-7.52759	0.140969	0.0462048	0.000533964	0.662642	-0.115113	-3.25106	-0.713862	-0.278458	-6.4976	-1.44029	1.20717	15.5571	17.0379	-8.83E-32	1.59E-15	3.18E-15	-4.7259	-13.9467	-6.79389	2.74813	18.7493	-9.43362	0.207498	11.5754	3.88994	-8.83E-32	1.59E-15	3.18E-15	3.4118	-10.6429	5.28599	-1.17608	21.5999	-0.295497	1.42227	13.5632	-2.51327	-2.70332	-1.06374	14.3832	1.93838	10.0913	0.891239	-5.69397	-17.2648	-1.36398	1.45E-14	3.26E-14	7.16E-15
-0.031	104.087	0.043	0.180434	-1.21739	160.098	1.82178	-3.08348	4.84225	-0.595874	11.9546	5.36627	1.42461	-7.55135	0.140829	0.0462048	0.000533964	0.662642	-0.115166	-3.24398	-0.711275	-0.278569	-6.48345	-1.43298	1.2006	15.5621	17.0482	3.98E-16	-3.18E-15	3.18E-15	-4.71305	-13.9476	-6.75157	2.73248	18.9059	-9.46688	0.213698	11.6119	3.85953	3.98E-16	-3.18E-15	3.18E-15	3.40665	-10.6017	5.25587	-1.16981	21.5825	-0.254359	1.39248	13.5362	-2.49176	-2.71317	-1.05019	14.3623	1.93419	10.0905	0.911512	-5.6714	-17.2663	-1.35803	1.43E-14	3.18E-14	7.95E-15
-0.03	104.082	0.052	0.177394	-1.19824	160.09	1.81263	-3.06984	4.8446	-0.590554	11.9583	5.36547	1.4194	-7.58113	0.140568	0.0462048	0.000533964	0.662642	-0.11517	-3.23885	-0.707219	-0.278744	-6.4732	-1.42484	1.19327	15.5699	17.0609	3.98E-16	7.95E-16	3.18E-15	-4.696	-13.9341	-6.71006	2.70869	19.1576	-9.50429	0.183816	11.6648	3.82788	3.98E-16	7.95E-16	3.18E-15	3.40344	-10.5767	5.21982	-1.1751	21.5469	-0.202911	1.38156	13.5165	-2.4604	-2.72632	-1.04277	14.3445	1.93235	10.0904	0.926985	-5.64622	-17.2677	-1.35358	1.48E-14	3.10E-14	5.57E-15
-0.029	104.077	0.063	0.174742	-1.17993	160.085	1.80332	-3.05839	4.8463	-0.580302	11.9627	5.3528	1.41141	-7.60971	0.140208	0.0462048	0.000533964	0.662642	-0.115188	-3.23269	-0.703537	-0.278623	-6.4609	-1.41505	1.17958	15.5813	17.0813	3.98E-16	2.39E-15	6.36E-15	-4.70185	-13.923	-6.67092	2.68975	19.4365	-9.5446	0.16529	11.6992	3.79392	3.98E-16	2.39E-15	6.36E-15	3.40252	-10.5784	5.17157	-1.19585	21.5731	-0.155939	1.40597	13.5265	-2.44612	-2.74099	-1.03705	14.3207	1.92882	10.0908	0.953065	-5.62173	-17.2689	-1.35256	1.46E-14	3.34E-14	4.77E-15
-0.029	104.072	0.074	0.176463	-1.1622	160.083	1.80143	-3.04772	4.84902	-0.576336	11.9721	5.34897	1.40693	-7.64162	0.139776	0.0462048	0.000533964	0.662642	-0.115251	-3.22597	-0.700779	-0.279261	-6.44745	-1.41186	1.16399	15.5999	17.1097	-3.98E-16	7.95E-16	3.18E-15	-4.71641	-13.8985	-6.62807	2.67614	19.6358	-9.57389	0.180936	11.6961	3.77257	-3.98E-16	7.95E-16	3.18E-15	3.42131	-10.5815	5.14725	-1.21765	21.6641	-0.147282	1.42834	13.5467	-2.45406	-2.74731	-1.03086	14.3016	1.92609	10.0921	0.968021	-5.60034	-17.2701	-1.35307	1.34E-14	3.18E-14	4.77E-15
-0.029	104.067	0.087	0.180163	-1.14242	160.084	1.79873	-3.03688	4.85615	-0.573036	11.9851	5.34237	1.40373	-7.67386	0.139295	0.0462048	0.000533964	0.662642	-0.115394	-3.21995	-0.699362	-0.279959	-6.43541	-1.4076	1.15798	15.6244	17.1359	-7.95E-16	1.59E-15	3.18E-15	-4.72662	-13.8761	-6.60365	2.64785	19.7272	-9.57472	0.188266	11.6642	3.75494	-7.95E-16	1.59E-15	3.18E-15	3.44956	-10.5829	5.1268	-1.2303	21.7553	-0.158233	1.4225	13.5481	-2.47837	-2.75018	-1.02329	14.2838	1.92006	10.0943	0.98768	-5.58141	-17.2717	-1.35396	1.27E-14	3.34E-14	5.57E-15
-0.029	104.061	0.102	0.182576	-1.12282	160.086	1.7956	-3.03021	4.86281	-0.569438	12.003	5.3315	1.40109	-7.70619	0.13879	0.0462048	0.000533964	0.662642	-0.115559	-3.21351	-0.698601	-0.280658	-6.42255	-1.40126	1.15509	15.6508	17.1515	-8.83E-32	1.59E-15	3.18E-15	-4.72979	-13.8678	-6.57852	2.61386	19.7167	-9.55931	0.152836	11.6307	3.74328	-8.83E-32	1.59E-15	3.18E-15	3.47994	-10.5781	5.09493	-1.2378	21.7938	-0.167307	1.39061	13.5263	-2.48932	-2.74711	-1.01441	14.2764	1.90796	10.0993	1.00967	-5.56105	-17.2741	-1.35405	1.60E-14	3.18E-14	6.36E-15
-0.029	104.055	0.117	0.184432	-1.10177	160.091	1.7921	-3.02551	4.86241	-0.565158	12.0276	5.33589	1.39856	-7.74222	0.138285	0.0462048	0.000533964	0.662642	-0.115749	-3.20792	-0.698365	-0.281908	-6.41135	-1.3963	1.15242	15.6697	17.1626	0.00E+00	7.95E-16	0.00E+00	-4.74601	-13.8694	-6.54247	2.59176	19.6332	-9.53357	0.102564	11.6106	3.74885	0.00E+00	7.95E-16	0.00E+00	3.48995	-10.5718	5.04685	-1.22122	21.7939	-0.165591	1.37893	13.5056	-2.47578	-2.7401	-1.00509	14.2874	1.89781	10.1098	1.00421	-5.54292	-17.2812	-1.35257	1.49E-14	3.10E-14	5.57E-15
-0.029	104.048	0.134	0.187427	-1.07897	160.1	1.78896	-3.02302	4.85605	-0.562663	12.0598	5.34682	1.39622	-7.78015	0.137805	0.0462048	0.000533964	0.662642	-0.115929	-3.20122	-0.698523	-0.284458	-6.39794	-1.39482	1.14695	15.6763	17.1664	0.00E+00	0.00E+00	0.00E+00	-4.77947	-13.8889	-6.52032	2.57694	19.5497	-9.48282	0.0634584	11.587	3.76779	0.00E+00	0.00E+00	0.00E+00	3.49823	-10.5615	4.99484	-1.19814	21.7926	-0.163801	1.40547	13.5141	-2.46749	-2.7331	-0.994022	14.3088	1.89664	10.1214	0.969951	-5.52661	-17.2917	-1.34351	1.63E-14	3.10E-14	5.57E-15
-0.029	104.039	0.151	0.189517	-1.06223	160.113	1.78777	-3.03097	4.84946	-0.554523	12.098	5.35502	1.39416	-7.81888	0.137374	0.0462048	0.000533964	0.662642	-0.116106	-3.19509	-0.698944	-0.288293	-6.38565	-1.39448	1.1415	15.6724	17.1689	3.98E-16	3.18E-15	3.18E-15	-4.80818	-13.9127	-6.50357	2.56056	19.5014	-9.42981	0.0248916	11.5611	3.77887	3.98E-16	3.18E-15	3.18E-15	3.50865	-10.5471	4.95951	-1.16956	21.8373	-0.184081	1.46658	13.5158	-2.47436	-2.71994	-0.993854	14.3325	1.89607	10.1378	0.931095	-5.51392	-17.3041	-1.33961	1.41E-14	3.10E-14	3.98E-15
-0.029	104.029	0.168	0.192981	-1.04853	160.127	1.78874	-3.04507	4.84141	-0.548234	12.1396	5.35542	1.39245	-7.85285	0.137015	0.0462048	0.000533964	0.662642	-0.116271	-3.18975	-0.6995	-0.291646	-6.37495	-1.39503	1.13731	15.6621	17.1705	-7.95E-16	1.59E-15	3.18E-15	-4.8239	-13.925	-6.4864	2.5315	19.5023	-9.37219	-0.018575	11.5418	3.77846	-7.95E-16	1.59E-15	3.18E-15	3.51583	-10.5232	4.94249	-1.13669	21.9045	-0.227868	1.53476	13.5273	-2.48091	-2.71138	-0.998344	14.3565	1.9026	10.1595	0.892277	-5.50298	-17.3195	-1.33629	1.34E-14	3.18E-14	3.98E-15
-0.029	104.022	0.187	0.195659	-1.03986	160.14	1.79398	-3.05719	4.83531	-0.547692	12.1617	5.35221	1.39115	-7.86033	0.136745	0.0462048	0.000533964	0.662642	-0.116418	-3.18564	-0.700059	-0.293603	-6.36673	-1.39621	1.1318	15.6567	17.1726	7.95E-16	1.59E-15	0.00E+00	-4.82571	-13.9258	-6.47733	2.49744	19.5346	-9.30744	-0.0739872	11.5293	3.77472	7.95E-16	1.59E-15	0.00E+00	3.50632	-10.4983	4.92469	-1.09734	21.9334	-0.26732	1.56679	13.5163	-2.47069	-2.70639	-1.0027	14.3879	1.9166	10.176	0.844843	-5.49203	-17.3306	-1.33343	1.41E-14	3.26E-14	5.57E-15
